<svg class="icon" viewBox="0 0 1024 1024" version="1.1" xmlns="http://www.w3.org/2000/svg" p-id="1679" height="128" width="128"><path d="M733.6 269.7c0.3-10.3 8.3-19.6 18.3-21.3 12.6-2.7 25.9 8.3 26.2 21.3 1.7 17.9 0.3 35.9 0.7 54.2h-45.5c0.6-17.9-0.4-36.2 0.3-54.2z m-330 143.9c5-5 14.3-1.3 15.6 5 2.7 7.6-6.3 16-13.6 12-6.6-2.7-8-12.7-2-17z m0 0" fill="#FFFFFF" p-id="1680"></path><path d="M406.9 545.2c22.6-20.6 52.5-33.6 83.1-33.9 31.6-1.7 63.8 9.3 88.1 29.2 4.7 3 5.3 8.6 7 13.3-15-5.7-25.9-18.3-40.5-23.9-43.2-19.9-97-10.3-131.9 21.9h-6.6c0.2-1.6 0.5-4.9 0.8-6.6z m0 0" fill="#8A96A3" p-id="1681"></path><path d="M733.3 692.8c33.9 5 68.5 10.6 100.7 23.3 10.3 4.7 21.9 9.3 26.9 20.3 3.7 8-4 15.3-10 19.6-16 10.3-34.6 15.3-52.8 19.9-43.9 10.6-88.7 16-133.3 19.9-85.1 7-170.5 8-255.6 3.7-52.5-3-105.3-7.6-157.2-17.6-24.6-5-49.2-10.3-71.8-21.3-7.6-4.3-16.6-9.6-18.3-18.9-0.3-8.6 7.3-15 14.3-18.9 17.9-10 38.2-16 58.8-18.9 0.3 16-1.3 32.2 1.3 48.2 3.3 16 19.6 25.6 34.9 24.9 141.9 1.3 283.8 0.3 425.7 0.7 16.6 1 33.6-10.6 36.2-27.6 2.2-19.5-0.5-38.4 0.2-57.3z m0 0" fill="#F4F4F4" p-id="1682"></path><path d="M778.1 232.5c-8.6-9.6-22.3-10.6-34.2-10.6-134.3 0.3-268.2-0.3-402.4 0.7-14 0.7-29.6-2.7-41.9 5.6-10 6.3-15.3 18.3-15 29.9v81.4h8.6v-78.4c0-8.3 1.3-17.3 8-22.9 6-6 14.6-7.3 22.6-7 134.3 0.3 268.5 0 402.4 0 11.6 0.3 23.3-1 34.9 1 7.3 1.7 12 8.3 16.9 13-9.3-3.3-18.6-8.3-28.6-5.7-15 3-25.6 17.6-24.9 32.9v446.3c0 10.3-0.7 22.9-11.3 28.2-13 9.3-33.2-1-33.9-16.6-2-23.6 0.3-47.2-1.3-70.8H292.3c0.3-12.3 1-24.6 0.7-36.9V371.8h-8.6v288.4c-16.3 0-32.6-0.3-48.8 0-0.7 14.6-0.7 28.9-0.7 43.5 0.3 16-1.3 32.2 1.3 48.2 3.3 16 19.6 25.6 34.9 24.9 141.9 1.3 283.8 0.3 425.7 0.7 16.6 1 33.6-10.6 36.2-27.6 2.3-18.9-0.7-37.9 0.3-56.8V333.2c17.9 0 36.2 0.3 54.2-0.3 0.7-21.6 0-43.5 0.7-65.1 0.2-12.7-0.4-26.6-10.1-35.3z m0 0" fill="#8A96A3" p-id="1683"></path><path d="M704.7 766.9c-11.3 1.7-22.6 0.7-33.9 0.7H286c-11.3-0.3-24.6 1.7-33.6-6.6-7.3-6-8.6-16-8.6-24.9v-67.8h426.4c0.3 20.6-0.7 41.2 0.3 61.8 0.7 13.3 10.6 25.6 23.9 28.2 10 2.7 19.6-2 28.9-5-5.7 5.9-11 12.6-18.6 13.6z m74.4-443.3h-45.5c0.3-17.9-0.7-35.9 0.3-53.8 0.3-10.3 8.3-19.6 18.3-21.3 12.6-2.7 25.9 8.3 26.3 21.3 1.6 17.9 0.3 35.8 0.6 53.8z m0 0" fill="#F4F4F4" p-id="1684"></path><path d="M317.9 354.1l31.2 6.3 26.9-16 31.2 6.3 26.9-15.6 17.9 3.3-16.3-7.6-28.9 11v0.3l-0.3-0.3v0.3l-0.3-0.3-29.2-11-29.2 11v0.3l-0.3-0.3v0.3l-0.3-0.3-29.2-11-33.6 12v-7.3l33.6-12.3 29.6 11 29.6-11 29.6 11 29.6-11 45.5 20.9 3.3 1.3 1.3 0.7-3.3 5.6-3.7-1-43.5-8.3-26.6 15.6v0.3h-0.7l-30.9-6.3-26.9 15.6v0.3h-0.3v-0.3l-30.9-6-28.2 15-7-5 33.4-17.5z m282.4 77.5l-10-10 10-10c1-1 1.3-2 1.3-3.3 0-1.3-0.3-2.3-1.3-3.3-1.7-1.7-5-1.7-6.6 0l-10 10-10-10c-1.7-1.7-5-1.7-6.6 0-2 2-1.7 5 0 6.6l10 10-10 10c-1 1-1.3 2-1.3 3.3 0 1.3 0.3 2.3 1.3 3.3s2 1.3 3.3 1.3c1.3 0 2.3-0.3 3.3-1.3l10-10 10 10c1.7 1.7 5 1.7 6.6 0 1.7-2 1.7-5 0-6.6z m-174.1 0l-10-10 10-10c1-1 1.3-2 1.3-3.3 0-1.3-0.3-2.3-1.3-3.3-1.7-1.7-5-1.7-6.6 0l-10 10-10-10c-1.7-1.7-5-1.7-6.6 0-2 2-1.7 4.7 0 6.6l10 10-10 10c-1 1-1.3 2-1.3 3.3 0 1.3 0.3 2.3 1.3 3.3s2 1.3 3.3 1.3c1.3 0 2.3-0.3 3.3-1.3l10-10 10 10c1.7 1.7 5 1.7 6.6 0 2-2 2-5 0-6.6z m0 0" fill="#8A96A3" p-id="1685"></path></svg>