<?xml version="1.0" standalone="no"?><!DOCTYPE svg PUBLIC "-//W3C//DTD SVG 1.1//EN" "http://www.w3.org/Graphics/SVG/1.1/DTD/svg11.dtd"><svg t="1602212437378" class="icon" viewBox="0 0 1024 1024" version="1.1" xmlns="http://www.w3.org/2000/svg" p-id="4209" xmlns:xlink="http://www.w3.org/1999/xlink" width="64" height="64"><defs><style type="text/css"></style></defs><path d="M500.55 487.05m-133.34 0a133.34 133.34 0 1 0 266.68 0 133.34 133.34 0 1 0-266.68 0Z" fill="#F7B52C" p-id="4210"></path><path d="M502.49 950.81c-26.35 0-51.24-10.2-70.09-28.71-49.98-49.11-122.5-125.02-184.14-207.73-35.04-47.02-62.64-91.13-82.04-131.12-23.92-49.3-36.05-93.88-36.05-132.51 0-50.25 9.85-99.01 29.27-144.93 18.75-44.34 45.59-84.15 79.78-118.33s74-61.02 118.33-79.78c45.92-19.42 94.69-29.27 144.93-29.27 50.25 0 99.01 9.85 144.93 29.27 44.34 18.75 84.15 45.59 118.33 79.78s61.02 73.99 79.78 118.33c19.42 45.92 29.27 94.69 29.27 144.93 0 38.63-12.13 83.21-36.05 132.51-19.4 39.99-47 84.1-82.04 131.12-61.63 82.72-134.16 158.62-184.14 207.73-18.82 18.52-43.71 28.71-70.07 28.71z m0-803.91c-167.54 0-303.84 136.3-303.84 303.84 0 53.94 36.14 130.95 104.52 222.72 59.03 79.22 128.96 152.38 177.22 199.8 12.39 12.17 31.8 12.17 44.19 0 48.27-47.42 118.19-120.58 177.22-199.8 68.38-91.77 104.52-168.78 104.52-222.72 0.01-167.54-136.29-303.84-303.83-303.84z" fill="#231815" p-id="4211"></path></svg>